<svg xmlns="http://www.w3.org/2000/svg" width="597.5" height="449.862" viewBox="0 0 597.5 449.862">
  <g id="BG_Crown" transform="translate(-3.932 -4.773)">
    <path id="Path_45" data-name="Path 45" d="M34.161,30.388c-3.652-6.109-12.337-3.541-12.031,3.554L38,401.346a79.5,79.5,0,0,0,46.575,68.625,75.837,75.837,0,0,0,31.5,6.845H290.357a6.093,6.093,0,0,0,5.235-9.233Z" transform="translate(-18.19 -22.18)" fill="#ef2833"/>
    <path id="Path_46" data-name="Path 46" d="M440.984,30.394,311.213,247.487a6.724,6.724,0,0,0-.156,6.67L413.966,440.669a6.121,6.121,0,0,0,10.447.241,78.258,78.258,0,0,0,12.735-39.568L453.015,33.948c.306-7.095-8.379-9.662-12.031-3.554" transform="translate(148.409 -22.177)" fill="#ef2833"/>
    <path id="Path_47" data-name="Path 47" d="M258.449,46.959a6.341,6.341,0,0,0-11.229,0L140.681,237.987a6.706,6.706,0,0,0,.112,6.665l130,219.661a6.116,6.116,0,0,0,5.265,2.994H457.541a75.884,75.884,0,0,0,24.518-4.05,6.326,6.326,0,0,0,3.6-8.956Z" transform="translate(49.882 -12.672)" fill="#ef2833"/>
  </g>
</svg>
